
<svg width="256" height="275" viewBox="0 0 256 275" fill="none" xmlns="http://www.w3.org/2000/svg">
<path d="M246.307 108.993C247.538 116.581 247.948 124.169 247.948 131.757C247.948 199.641 194.011 254.809 126.948 256.449C126.948 256.449 163.863 239.837 204.06 186.72C243.436 134.834 246.307 108.993 246.307 108.993Z" fill="#0067B4"/>
<path d="M234.412 16.4996C222.723 3.78429 190.729 26.5488 190.729 26.5488C205.495 35.9827 218.006 48.4929 227.645 63.0539C227.44 63.259 245.282 28.5996 234.412 16.4996ZM246.923 3.78429C259.638 14.2436 259.638 35.7776 242.821 80.4862C221.492 136.885 171.246 191.847 146.226 217.688C117.924 246.81 63.1663 285.776 40.6069 272.036C19.6882 259.32 34.4543 221.38 35.8899 217.278C47.1696 182.824 77.5222 138.115 81.829 108.173C86.3409 75.5641 75.6765 67.3607 67.0629 62.8489C61.7307 59.9777 35.6848 51.9793 14.356 95.4574C-6.9729 138.935 12.3051 186.105 12.3051 186.105C4.10171 169.083 0 150.625 0 131.757C0 62.8489 55.373 7.06566 124.077 7.06566C144.79 7.06566 164.889 12.1928 183.141 22.0369C182.936 22.242 228.67 -10.9818 246.923 3.78429Z" fill="#0067B4"/>
</svg>
